<svg xmlns="http://www.w3.org/2000/svg" width="1200" height="1200" viewBox="0 0 1200 1200">
  <defs>
    <style>
      .newt-cls-1 {
        fill: #dbc927;
      }

      .newt-cls-1, .newt-cls-2 {
        stroke: #000;
        stroke-width: 1px;
      }

      .newt-cls-2 {
        fill-rule: evenodd;
      }
    </style>
  </defs>
  <rect class="newt-cls-1" width="1199" height="1200"/>
  <path class="newt-cls-2" d="M395,154c4.641,16.173,5.308,27.571,15,32,10.647,4.866,31.03,12.561,43,27,21.888,26.4,16.48,45.32-11,88,51,24.842,92.156,47.582,132,84,34.247,31.3,59.858,78.019,75,122,18.256-.395,31.956-0.376,48,0,5.654,0.133,21.09,3.29,31,10,14.558,9.857,20.069,22.563,28,30,5.391,5.055,12.343,2.033,14-3,1.572-4.774,14.194-40.345,19-49,3.592-6.469,7.729-3,7,4-1.33,12.771-4.239,24.552-5,39-0.484,9.2,10.053,12.593,18,12,20.111-1.5,35.716-8.317,49-11,9.192-1.857,12.158,2.449,4,8-10.049,6.836-39.608,22.978-53,34-2.871,2.363-4.932,11-1,14,12.222,9.31,23.344,15.5,32,22,2.625,1.972,8.161,8.775-6,5-19.433-5.18-68.638-28.619-84-34-27.326-9.572-52.22-10.412-82-6,21.037,89.739,43.39,181.717,105,233,102.436,85.266,116.947,56.974,188,94,40.83,21.277,68.96,46.774,95,83,23.23,32.32,30.03,63.15,33,105-13.91-42.26-28.91-78.56-62-111-25.45-24.95-73.663-51.642-126-58-45.885-5.575-107.594-25.439-153-51-20.168-11.353-66.351-52.558-97-97-32.96-47.794-51.576-85.8-78-139-17,8-29.522,15.929-48,24-13.243,5.784-44.536-8.744-66-17-13.014-5-76.115-9.392-89-12-11.373-2.3-13.062-7.828-3-8,11.124-.191,24.614-1.839,37-3,5.525-.518,9.151-6.185,7-11-8.883-19.885-31.024-38-41-50-7.138-8.588-2.887-11.285,4-6,5.987,4.6,25.635,14.6,46,27,8.585,5.225,19.574,3.135,21-5,2.475-14.119,1.548-28.635,2-37,0.538-9.966,6.467-8.5,10,5,2.781,10.627,3.6,20.178,7,39,1.711,9.463-.462,20.616,14,22,13,1.244,23.695-.817,45-13,8.377-4.79,17.063-9.806,24-17-21.7-34.5-45.951-67.414-75-96-32.87-32.346-63.211-57.407-98-81-9.914,8.678-13.145,20.353-14,31-0.9,11.209,2.9,14.972,8,28,6.153,15.722,7.072,31.064,6,37-1.623,8.987-8.721,26.214-25,40-20.1,17.021-45.737,25.365-58,29-16.133,4.782-16.357-4.354-9-8,5.223-2.589,18.962-9.646,29-17,8.635-6.326.875-13.966-10-16-18.456-3.453-42.067-5.8-55-8-13.875-2.357-13.41-7.339,2-9,14.252-1.537,32.342-4.063,50-7,9.32-1.55,9.256-6.185,2-14-10.892-11.732-22.844-22.329-29-29-5.074-5.5-2.069-8.155,5.544-4.137C286.093,462.012,292.96,467.193,306,476c5.483,3.7,15.721-1.021,13-8-5.043-12.932-17.262-29.254-17-41,0.361-16.229,6.536-35.328,15.3-63.687C299,353.667,283,344.333,265,335c-28.977-6.285-67.216-5.319-80-16-26.317-21.987-45.31-44.967-62-75-9.309-16.751-16.751-39.038-10-50,9.391-15.25,38.648-13.908,65-14,19.555-.068,59.751,2.157,75,8,11.176,4.282,19.569,16.878,36,35,12.87,14.195,32.732,34.329,37,36,16.975,6.646,32.677,13.393,50,20,7.511-11,16.3-22.557,18-35,1.647-12.057-6.876-20.387-14-23-33.077-12.13-58.03-14.534-75-19-9.258-2.437-10.316-6.776-2-7,7.857-.212,22.04-0.925,37-2,8.365-.6,10.116-8.431,7-13-13.892-20.372-27.674-30.363-38-43-5.275-6.455-1.059-11.075,5-7,15.5,10.426,25.274,18.275,44,29,8.226,4.711,20.548,4.683,20-8-0.606-14.02-4.777-23.393-8-36-2.481-9.7,5.507-11.006,8-6A257.2,257.2,0,0,1,395,154ZM208,198a14,14,0,1,1-14,14A14,14,0,0,1,208,198Zm-31,59a14,14,0,1,1-14,14A14,14,0,0,1,177,257Z"/>
</svg>
